<?xml version="1.0" encoding="utf-8"?>
<!-- Generator: Adobe Illustrator 19.1.0, SVG Export Plug-In . SVG Version: 6.00 Build 0)  -->
<svg version="1.1" xmlns="http://www.w3.org/2000/svg" xmlns:xlink="http://www.w3.org/1999/xlink" x="0px" y="0px"
	 viewBox="0 0 1200 1076" enable-background="new 0 0 1200 1076" xml:space="preserve">
<g id="Layer_1">
</g>
<g id="Livello_1">
	<g>
		<g>
			<path fill="#F1931F" d="M819,606.1c25.4-26.4,45.7-56.6,60.2-89.9l53.1,22.1c-17.4,40.3-41.8,76.8-72.7,108.5L819,606.1"/>
			<path fill="#EFEEEE" d="M605.4,699c36.6-0.7,72.3-7.7,106.1-21l22,53.1c-40.9,16.2-83.9,24.7-128.1,25.4V699"/>
			<path fill="#B1832C" d="M883.2,506.3c13.4-33.9,20.4-69.6,21-106.1h57.5c-0.7,44.2-9.2,87.3-25.4,128.1L883.2,506.3"/>
			<path fill="#BC5063" d="M811.3,175.8c-26.4-25.5-56.6-45.7-89.9-60.2l22.1-53.1c40.3,17.4,76.8,41.8,108.5,72.7L811.3,175.8"/>
			<path fill="#BC5063" d="M456.5,727c-40.3-17.4-76.8-41.9-108.5-72.7l40.6-40.6c26.4,25.4,56.6,45.7,89.9,60.2L456.5,727"/>
			<path fill="#F1931F" d="M267.7,251.2c17.4-40.3,41.9-76.8,72.7-108.5l40.7,40.7c-25.5,26.4-45.7,56.5-60.2,89.9L267.7,251.2"/>
			<path fill="#B1832C" d="M238.2,389.4c0.7-44.2,9.2-87.3,25.4-128.1l53.1,22c-13.3,33.9-20.4,69.5-21,106.1H238.2"/>
			<path fill="#00697F" d="M263.7,528.2c-16.2-40.8-24.8-83.9-25.4-128.1h57.6c0.6,36.6,7.7,72.2,21,106.1L263.7,528.2"/>
			<path fill="#E53B39" d="M340.4,646.7c-30.8-31.7-55.3-68.2-72.7-108.6l53.2-22c14.5,33.3,34.7,63.6,60.2,89.9L340.4,646.7"/>
			<path fill="#E53B39" d="M879.2,273.3c-14.5-33.3-34.8-63.5-60.2-89.9l40.6-40.6c30.8,31.7,55.3,68.2,72.7,108.5L879.2,273.3"/>
			<path fill="#EFEEEE" d="M466.5,58.4c40.9-16.2,83.9-24.7,128.2-25.4v57.5c-36.6,0.6-72.3,7.7-106.1,21L466.5,58.4"/>
			<path fill="#00697F" d="M904.3,389.4c-0.6-36.6-7.7-72.3-21-106.1l53.1-22c16.2,40.8,24.8,83.9,25.4,128.1H904.3"/>
			<path fill="#C8D49A" d="M711.5,111.5c-33.8-13.3-69.5-20.4-106.1-21V32.9c44.2,0.7,87.2,9.2,128.1,25.4L711.5,111.5"/>
			<path fill="#C8D49A" d="M594.7,756.5c-44.2-0.7-87.3-9.2-128.2-25.4l22-53.1c33.8,13.3,69.5,20.4,106.1,21V756.5"/>
			<path fill="#3C3C3B" d="M691.9,266.1L592.5,331c-20.1,13.1-44.4,41.9-54.1,63.8L489,507.3c-9.6,22-1.1,29.1,18.9,15.9l102.4-67.7
				c20-13.2,44.2-42.1,53.7-64.2l47-108.9C720.6,260.3,711.9,253,691.9,266.1z M608.2,403.7c-5,4.6-12.6,4.2-17.2-0.8
				c-4.5-5-4.1-12.6,0.8-17.2c5-4.5,12.7-4.2,17.2,0.8C613.6,391.5,613.1,399.2,608.2,403.7z"/>
		</g>
		<g>
			<g>
				<path d="M139,868.1l32,141.7l29.5-141.7h21.3l-40.7,173.7h-19.4l-31.3-132l-31.3,132H79.9L39.2,868.1h21.3l29.5,141.7l32-141.7
					H139z"/>
				<path d="M326.4,868.1v18.6h-62.3v66.5h58.6v18.6h-58.6v51.4h62.3v18.6h-80.9V868.1H326.4z"/>
				<path d="M352.9,869.1c10.7-1.5,20.8-2,30.8-2c40.7,0,61.1,19.6,61.1,46.4c0,16.9-9.9,31.5-24.8,38.2
					c17.1,5.7,29.5,21.8,29.5,41.4c0,29-21.3,49.9-61.8,49.9c-12.4,0-24.6-0.5-34.7-1.7V869.1z M371.8,943.5
					c5.5,0.5,13.7,0.5,17.9,0.5c23.1,0,36.2-12.4,36.2-30.5c0-15.6-12.7-28.8-38.2-28.8c-3.5,0-10.4,0-15.9,0.7V943.5z
					 M371.8,1025.2c5.5,0.5,12.7,0.5,15.6,0.5c29,0,41.9-14.1,41.9-33s-14.1-31.8-39-31.8c-5.5,0-13.9,0.2-18.6,0.7V1025.2z"/>
			</g>
			<g>
				<path d="M537.6,1014.8l-32.8-73v100h-28.8V868.1h26.8l34.7,82.1l34.7-82.1h26.8v173.7h-28.8v-100L537.6,1014.8z"/>
				<path d="M692,868.1c0,0,11.4,40.5,22.1,87.6c11.4,50.4,18.9,86.1,18.9,86.1h-31.8c-0.5-2.2-2.2-13.4-5.5-29H656
					c-3.2,15.6-5,26.8-5.5,29h-31.8c0,0,7.4-35.7,18.9-86.1c10.7-47.2,22.1-87.6,22.1-87.6H692z M690.5,985.2
					c-7.7-44.7-14.6-75.7-14.6-75.7s-6.9,31-14.6,75.7H690.5z"/>
				<path d="M780.8,1041.8h-29.5v-172c6.7-1.5,17.9-3,26.3-3c47.4,0,75,27.8,75,64.5c0,36-26.6,62.5-71.7,62.5V1041.8z M784.1,896.6
					c-1.7,0-3.2,0.2-3.2,0.2v69.7c27.5,0,41.7-13.7,41.7-36.2C822.5,912.8,808.1,896.6,784.1,896.6z"/>
				<path d="M899.7,1041.8h-29.5v-172c6.7-1.5,17.9-3,26.3-3c47.4,0,75,27.8,75,64.5c0,36-26.6,62.5-71.7,62.5V1041.8z M903,896.6
					c-1.7,0-3.2,0.2-3.2,0.2v69.7c27.5,0,41.7-13.7,41.7-36.2C941.4,912.8,927,896.6,903,896.6z"/>
			</g>
			<g>
				<path d="M988.1,1041.8h-22.8V1017h22.8V1041.8z"/>
				<path d="M1044.1,1041.8H1025V868.1h19.1V1041.8z"/>
				<path d="M1160.8,868.1v18.6h-37.7v155.1h-19.4V886.7H1066v-18.6H1160.8z"/>
			</g>
		</g>
	</g>
</g>
</svg>
